<svg width="80" height="80" viewBox="0 0 80 80" fill="none" xmlns="http://www.w3.org/2000/svg">
<rect x="42" y="45" width="33" height="28" stroke="" stroke-width="2"/>
<line x1="42" y1="55" x2="75" y2="55" stroke="" stroke-width="2"/>
<line x1="42" y1="64" x2="75" y2="64" stroke="" stroke-width="2"/>
<line x1="55" y1="47" x2="63" y2="47" stroke="" stroke-width="2"/>
<line x1="55" y1="57" x2="63" y2="57" stroke="" stroke-width="2"/>
<line x1="55" y1="66" x2="63" y2="66" stroke="" stroke-width="2"/>
<rect x="5" y="45" width="33" height="28" stroke="" stroke-width="2"/>
<line x1="10" y1="47" x2="18" y2="47" stroke="" stroke-width="2"/>
<line x1="26" y1="47" x2="34" y2="47" stroke="" stroke-width="2"/>
<line x1="22" y1="45" x2="22" y2="74" stroke="" stroke-width="2"/>
<rect x="1" y="-1" width="33" height="15" transform="matrix(1 0 0 -1 4 22)" stroke="" stroke-width="2"/>
<line y1="-1" x2="8" y2="-1" transform="matrix(1 0 0 -1 17 20)" stroke="" stroke-width="2"/>
<rect x="1" y="-1" width="33" height="15" transform="matrix(1 0 0 -1 41 22)" stroke="" stroke-width="2"/>
<line y1="-1" x2="8" y2="-1" transform="matrix(1 0 0 -1 54 20)" stroke="" stroke-width="2"/>
</svg>
