<svg width="80" height="80" viewBox="0 0 80 80" fill="none" xmlns="http://www.w3.org/2000/svg">
<path d="M6 24C6 23.4477 6.44772 23 7 23H73C73.5523 23 74 23.4477 74 24V26C74 27.1046 73.1046 28 72 28H8C6.89543 28 6 27.1046 6 26V24Z" stroke="" stroke-width="2"/>
<path d="M23 57C23 57.5523 23.4477 58 24 58H56C56.5523 58 57 57.5523 57 57V56C57 54.8954 56.1046 54 55 54H25C23.8954 54 23 54.8954 23 56V57Z" stroke="" stroke-width="2"/>
<path d="M40.5 54L28.5 28H37.5L49.5 54H40.5Z" stroke="" stroke-width="2"/>
<path d="M39.5 54H30.5L35.5 42.5M40 33.5L42.5 28H51.5L44.5 43" stroke="" stroke-width="2"/>
</svg>
