<svg width="13" height="15" viewBox="0 0 13 15" fill="none" xmlns="http://www.w3.org/2000/svg">
<path d="M8.125 9.09091H0.738636V7.52841H8.125C8.80682 7.52841 9.37027 7.41004 9.81534 7.1733C10.2604 6.93182 10.5919 6.60511 10.8097 6.19318C11.0275 5.77651 11.1364 5.30303 11.1364 4.77273C11.1364 4.24242 11.0275 3.77131 10.8097 3.35938C10.5919 2.94271 10.2604 2.616 9.81534 2.37926C9.37027 2.13778 8.80682 2.01705 8.125 2.01705H4.80114V15H3.03977V0.454545H8.125C9.20455 0.454545 10.0947 0.651041 10.7955 1.04403C11.4962 1.43703 12.017 1.96023 12.358 2.61364C12.6989 3.26705 12.8693 3.98674 12.8693 4.77273C12.8693 5.55871 12.6989 6.27841 12.358 6.93182C12.017 7.58523 11.4962 8.10843 10.7955 8.50142C10.0947 8.89441 9.20455 9.09091 8.125 9.09091ZM8.01136 10.4545V12.017H0.738636V10.4545H8.01136Z" fill="#232323"/>
</svg>
