<svg width="24" height="24" viewBox="0 0 24 24" fill="none" xmlns="http://www.w3.org/2000/svg">
<path d="M14.8779 1.9999C16.345 1.60681 16.6069 2.03296 17 3.5L19.9996 14.3643C20.3927 15.8313 19.5221 17.3392 18.055 17.7323L11.7765 19.4146C10.3095 19.8077 8.80159 18.9371 8.4085 17.4701L5.37793 6.50052C4.98484 5.03349 4.91089 4.61516 6.37793 4.22207L14.8779 1.9999ZM5.68089 11.158L7.44258 17.7289C7.62354 18.4043 7.97779 18.987 8.44466 19.4419L8.00181 19.4181C6.48511 19.3386 5.32002 18.0447 5.3995 16.528L5.68089 11.158ZM14.3022 3.72641L8.02367 5.40873C7.35684 5.58741 6.96111 6.27283 7.13979 6.93967L9.85739 17.0819C10.036 17.7487 10.7215 18.1444 11.3883 17.9657L17.6668 16.2834C18.3336 16.1047 18.7294 15.4193 18.5507 14.7525L15.8331 4.61029C15.6544 3.94346 14.969 3.54773 14.3022 3.72641ZM4.7563 9.67983L4.40087 16.4756C4.36426 17.1743 4.52133 17.8384 4.82514 18.4156L4.41074 18.255C2.99283 17.7107 2.28462 16.12 2.8289 14.7021L4.7563 9.67983ZM9.61931 6.5341C10.1527 6.39116 10.7011 6.70774 10.844 7.24121C10.987 7.77467 10.6704 8.32301 10.1369 8.46595C9.60348 8.60889 9.05514 8.29231 8.9122 7.75884C8.76926 7.22538 9.08584 6.67704 9.61931 6.5341Z" fill="#212121"/>
</svg>
