<svg width="24" height="25" viewBox="0 0 24 25" fill="none" xmlns="http://www.w3.org/2000/svg">
<path d="M1 2.16016H5L7.68 16.0858C7.86874 17.074 8.71138 17.7795 9.68 17.7602H19.4C20.3686 17.7795 21.2113 17.074 21.4 16.0858L23 7.36016H6M10 22.9602C10 23.5345 9.55228 24.0002 9 24.0002C8.44772 24.0002 8 23.5345 8 22.9602C8 22.3858 8.44772 21.9202 9 21.9202C9.55228 21.9202 10 22.3858 10 22.9602ZM21 22.9602C21 23.5345 20.5523 24.0002 20 24.0002C19.4477 24.0002 19 23.5345 19 22.9602C19 22.3858 19.4477 21.9202 20 21.9202C20.5523 21.9202 21 22.3858 21 22.9602Z" stroke="#232323" stroke-width="2" stroke-linecap="round" stroke-linejoin="round"/>
</svg>
