<svg width="82" height="80" viewBox="0 0 82 80" fill="none" xmlns="http://www.w3.org/2000/svg">
<rect x="1" y="10" width="21.7143" height="59.5148" stroke="#353535"/>
<rect x="59.2861" y="10" width="21.7143" height="59.5148" stroke="#353535"/>
<path d="M22.7139 10H59.4996" stroke="#353535"/>
<path d="M12.4287 20.3506L59.2859 20.3506" stroke="#353535"/>
<path d="M59.2861 52.6953H81.0004" stroke="#353535"/>
<path d="M73 52.6953V9.99988" stroke="#353535"/>
<path d="M12.4287 70L12.4287 10" stroke="#353535"/>
<path d="M12.4287 30.7012H23.0001" stroke="#353535"/>
<path d="M12.4287 41.0508H23.0001" stroke="#353535"/>
<path d="M12.4287 51.4014H23.0001" stroke="#353535"/>
<path d="M73 41.0508H81" stroke="#353535"/>
<path d="M73 33.2881H81" stroke="#353535"/>
<path d="M73 25.5254H81" stroke="#353535"/>
<path d="M73 17.7627H81" stroke="#353535"/>
<path d="M63.8574 34.582V29.4068" stroke="#353535"/>
<path d="M5.57129 34.582V29.4068" stroke="#353535"/>
<path d="M22.7139 69.5146H58.9996" stroke="#353535"/>
<path d="M22.7139 59.1641H58.9996" stroke="#353535"/>
<path d="M38.7139 64.3398H43.2853" stroke="#353535"/>
<path d="M22.7139 52.6953L58.9996 52.6953" stroke="#353535"/>
<path d="M38.7147 51.4021V46.2269M38.7147 46.2269H27.2861V31.9951H54.7147V46.2269H43.2861M38.7147 46.2269H43.2861M43.2861 46.2269V51.4021M35.2861 51.4021H46.7147" stroke="#353535"/>
</svg>
