<svg width="80" height="80" viewBox="0 0 80 80" fill="none" xmlns="http://www.w3.org/2000/svg">
<path d="M25 63H55.0438" stroke="#353535"/>
<path d="M56.9637 47.1449H23.4814V30.1709C23.4814 27.4094 25.72 25.1709 28.4814 25.1709H51.9637C54.7251 25.1709 56.9637 27.4094 56.9637 30.1709V47.1449Z" stroke="#353535"/>
<path d="M37.4093 46.638C39.077 46.638 40.429 45.286 40.429 43.6183C40.429 41.9506 39.077 40.5986 37.4093 40.5986C35.7416 40.5986 34.3896 41.9506 34.3896 43.6183C34.3896 45.286 35.7416 46.638 37.4093 46.638Z" stroke="#353535"/>
<path d="M32.9054 39.0003C34.5731 39.0003 35.9251 37.6483 35.9251 35.9806C35.9251 34.3129 34.5731 32.9609 32.9054 32.9609C31.2377 32.9609 29.8857 34.3129 29.8857 35.9806C29.8857 37.6483 31.2377 39.0003 32.9054 39.0003Z" stroke="#353535"/>
<path d="M29.8976 46.1448C31.5653 46.1448 32.9173 44.7929 32.9173 43.1251C32.9173 41.4574 31.5653 40.1055 29.8976 40.1055C28.2299 40.1055 26.8779 41.4574 26.8779 43.1251C26.8779 44.7929 28.2299 46.1448 29.8976 46.1448Z" stroke="#353535"/>
<path d="M36.9619 40.6084H50.505C52.1787 40.6084 53.5355 41.9652 53.5355 43.639C53.5355 45.3127 52.1787 46.6695 50.505 46.6695H36.9619" stroke="#353535"/>
<path d="M32.458 32.9707H46.0011C47.6748 32.9707 49.0317 34.3275 49.0317 36.0012C49.0317 37.675 47.6748 39.0318 46.0011 39.0318H32.458" stroke="#353535"/>
<path d="M34.6426 63.5288V52.9795" stroke="#353535"/>
<path d="M40.5703 63.529V51.5332" stroke="#353535"/>
<path d="M46.6152 62.6112V52.9795" stroke="#353535"/>
<path d="M66 20.5C66 38.8546 66 40.1454 66 58.5" stroke="#353535"/>
<path d="M55 63C53.5 58 50 52 40.5 51.5" stroke="#353535"/>
<path d="M15 20.5L15 58.5" stroke="#353535"/>
<path d="M26 63C27.5 58 31 52 40.5 51.5" stroke="#353535"/>
<path d="M55 63H70.5V58H66" stroke="#353535"/>
<path d="M66 21H70.5V16H66" stroke="#353535"/>
<path d="M66.5 21H10V16H66" stroke="#353535"/>
<path d="M25 63H10V58H14.5" stroke="#353535"/>
</svg>
