<svg width="80" height="80" viewBox="0 0 80 80" fill="none" xmlns="http://www.w3.org/2000/svg">
<rect x="17" y="10" width="45" height="60" stroke="#353535"/>
<path d="M17.5146 62.2861L61.5146 62.2861" stroke="#353535"/>
<path d="M17.0146 54.5713L62.0146 54.5713" stroke="#353535"/>
<path d="M39.5 32.2861L61.5142 32.2861" stroke="#353535"/>
<path d="M39 41L61.5142 41" stroke="#353535"/>
<path d="M39.5 54.5713L39.5 13.4284" stroke="#353535"/>
<path d="M27 58H32" stroke="#353535"/>
<path d="M47 58H52" stroke="#353535"/>
<path d="M20.333 40.8574V35.7146" stroke="#353535"/>
<path d="M27 65.7139H32" stroke="#353535"/>
<path d="M47 65.7139H52" stroke="#353535"/>
<path d="M17.0146 13.4287L62.0146 13.4287" stroke="#353535"/>
<path d="M47.1337 20.637C47.0354 19.5096 47.9387 18.5713 49.0704 18.5713H52.4296C53.5613 18.5713 54.4646 19.5096 54.3663 20.637C54.2485 21.9872 54.0362 23.7294 53.6667 24.9999C53.4648 25.6938 53.0117 26.5507 52.6288 27.2053C52.2587 27.8379 52.21 28.6192 52.5474 29.2698L52.9095 29.9681C53.2546 30.6338 52.7715 31.4284 52.0217 31.4284H49.453C48.7092 31.4284 48.2257 30.6454 48.5589 29.9804L48.9319 29.2362C49.2492 28.6029 49.2052 27.8506 48.857 27.2337C48.4855 26.5757 48.0381 25.7039 47.8333 24.9999C47.4638 23.7294 47.2515 21.9872 47.1337 20.637Z" stroke="#353535"/>
<path d="M54.5006 21.1426C55.9649 20.3218 57.9763 22.0725 57.0006 23.714C55.9828 25.4263 53.4844 26.1487 52.8338 26.2855" stroke="#353535"/>
<path d="M47.0005 21.1426C45.5361 20.3219 43.5247 22.0726 44.5004 23.7141C45.5182 25.4264 47.4404 26.1487 48.091 26.2855" stroke="#353535"/>
</svg>
