<svg width="80" height="80" viewBox="0 0 80 80" fill="none" xmlns="http://www.w3.org/2000/svg">
<ellipse cx="40" cy="30" rx="15" ry="24" stroke="" stroke-width="2"/>
<path d="M46.9431 37.627L40.4396 46.0059" stroke="" stroke-width="2"/>
<path d="M48.4354 41.4706L44.5333 46.4979" stroke="" stroke-width="2"/>
<path fill-rule="evenodd" clip-rule="evenodd" d="M57.4738 31.0003C56.8568 31.0087 56.1738 31.2189 55.7 31.8019C55.653 31.8598 55.5857 31.9479 55.5247 32.0616C55.189 32.6861 54.0555 35.4144 54.945 42.6676C55.9133 50.5625 50.7196 57.6661 43.2863 57.6661V59.6029C52.3203 59.6029 58.0177 51.0856 56.9577 42.4421C56.1322 35.7105 57.1458 33.3145 57.3103 32.9796C57.3284 32.9645 57.377 32.9386 57.5029 32.9369C57.6887 32.9344 57.9534 32.9939 58.2328 33.1359C58.51 33.2769 58.7307 33.4635 58.8582 33.6387C58.9843 33.8119 58.9762 33.9061 58.9697 33.935C58.299 36.9631 57.9359 40.2824 58.5017 43.1913C60.1433 51.6314 53.6835 61.3415 43.2863 61.3415V63.2783C55.1803 63.2783 62.3235 52.2429 60.494 42.8373C59.9991 40.2928 60.304 37.2628 60.9523 34.3361C61.1068 33.6385 60.8657 33.0053 60.5219 32.5329C60.1797 32.0625 59.6938 31.685 59.1847 31.4261C58.6778 31.1683 58.0766 30.992 57.4738 31.0003ZM57.298 32.9931L57.2988 32.9921L57.298 32.9931Z" fill=""/>
<path fill-rule="evenodd" clip-rule="evenodd" d="M22.5262 31.0003C23.1432 31.0087 23.8262 31.2189 24.3 31.8019C24.347 31.8598 24.4143 31.9479 24.4753 32.0616C24.811 32.6861 25.9445 35.4144 25.055 42.6676C24.1054 50.4108 30.644 57.6658 38.2202 57.6658V59.6027C29.3292 59.6027 21.9636 51.2374 23.0423 42.4421C23.8678 35.7105 22.8542 33.3145 22.6897 32.9796C22.6716 32.9645 22.623 32.9386 22.4971 32.9369C22.3113 32.9344 22.0466 32.9939 21.7672 33.1359C21.49 33.2769 21.2693 33.4635 21.1418 33.6387C21.0157 33.8119 21.0238 33.9061 21.0302 33.935C21.701 36.9631 22.0641 40.2824 21.4983 43.1913C20.6958 47.3171 22.2103 51.8738 25.3087 55.4223C28.3986 58.961 32.9906 61.4106 38.2202 61.4106V63.3474C32.3042 63.3474 27.1694 60.5761 23.7528 56.6632C20.3447 52.7601 18.5729 47.6344 19.506 42.8373C20.0009 40.2928 19.696 37.2629 19.0477 34.3361C18.8932 33.6385 19.1343 33.0053 19.4781 32.5329C19.8203 32.0625 20.3062 31.685 20.8153 31.4261C21.3222 31.1683 21.9234 30.992 22.5262 31.0003ZM22.702 32.9931L22.7012 32.9921L22.702 32.9931Z" fill=""/>
<path d="M39.3813 57.5369H42.2385C42.6989 57.5369 43.1014 57.8336 43.2184 58.2591L43.3196 58.627L45.2795 58.1345C44.8947 56.7358 43.8697 55.6001 42.2385 55.6001H39.3813C37.7501 55.6001 36.7251 56.7358 36.3403 58.1345L38.2202 58.6342C38.467 58.1233 38.6715 57.5369 39.3813 57.5369Z" fill=""/>
<path fill-rule="evenodd" clip-rule="evenodd" d="M34.5288 66.3313C35.1821 65.7376 35.6375 65.5793 35.9188 65.5288C36.0696 65.5018 36.2099 65.4985 36.3623 65.505C36.3836 65.506 36.4208 65.5083 36.4672 65.5113C36.6001 65.5198 36.8091 65.5332 36.9409 65.531C37.1838 65.5268 37.5741 65.486 37.9305 65.211C38.2708 64.9484 38.429 64.5884 38.5163 64.2802C38.6822 63.6949 38.7268 62.7756 38.7268 61.4106H36.7003C36.7003 62.5732 36.6619 63.2208 36.6025 63.5776C36.5614 63.5752 36.5123 63.5727 36.4528 63.5701C36.2101 63.5598 35.9017 63.5612 35.5447 63.6253C34.8103 63.7571 34.0133 64.1272 33.1324 64.9277C32.324 65.6624 31.4079 66.2209 30.5713 66.7169L30.442 66.7934C30.0806 67.0073 29.7197 67.2209 29.4191 67.4242C29.3477 67.4725 29.2733 67.5243 29.1981 67.5798C28.7257 67.3503 28.1506 67.1521 27.5229 67.071C26.4619 66.9339 25.221 67.1339 24.159 68.0991C23.0878 69.0725 22.7756 70.3766 23.2116 71.5399C23.6384 72.6789 24.7246 73.5394 26.1433 73.8259C26.9944 73.9978 28.4084 74.1009 29.7065 73.8503C30.9656 73.6072 32.5235 72.929 32.8345 71.2334C32.8754 71.0104 33.042 70.7316 33.4643 70.4173C33.8845 70.1046 34.4788 69.8186 35.1899 69.5778C36.6138 69.0956 38.2992 68.8632 39.4368 68.8632C41.7187 68.8632 43.915 68.7784 46.0994 69.5233C46.8137 69.7668 47.41 70.0563 47.8322 70.3732C48.2558 70.6911 48.4283 70.9769 48.4719 71.2113C48.7903 72.9247 50.3811 73.6051 51.6619 73.8491C52.9871 74.1017 54.4319 73.9977 55.3011 73.8245C56.7434 73.537 57.8529 72.6728 58.2902 71.5213C58.7377 70.3426 58.4154 69.0237 57.3216 68.0426C56.2387 67.0713 54.9769 66.8717 53.8992 67.0091C53.251 67.0918 52.6574 67.2956 52.1718 67.5308C52.0892 67.4702 52.0073 67.4138 51.9289 67.3614C51.6213 67.1561 51.2519 66.9403 50.881 66.7237L50.7485 66.6462C49.8902 66.1441 48.9486 65.5775 48.1175 64.8321C47.21 64.0181 46.3804 63.6523 45.6129 63.5383C45.2407 63.4831 44.918 63.4925 44.6612 63.5133C44.5858 63.5194 44.5127 63.5268 44.4484 63.5338C44.3885 63.1851 44.3468 62.4799 44.3468 61.3415H42.3203C42.3203 62.7208 42.3714 63.7263 42.5611 64.3198C42.6635 64.6402 42.8498 65.0075 43.2329 65.2536C43.6133 65.4978 44.0116 65.5069 44.2418 65.4975C44.3612 65.4926 44.4792 65.48 44.569 65.4701L44.6116 65.4654C44.6918 65.4566 44.7596 65.4491 44.8325 65.4432C44.9936 65.4301 45.1429 65.4286 45.3017 65.4522C45.5963 65.4959 46.0648 65.6471 46.7308 66.2444C47.7292 67.1399 48.8329 67.7964 49.6905 68.2981L49.8176 68.3725C50.2022 68.5972 50.5151 68.7801 50.7685 68.9493C50.9055 69.0408 51.0065 69.1161 51.0788 69.1783C51.1461 69.2362 51.1698 69.2668 51.1724 69.2702L51.761 70.15L52.6345 69.5232C52.9489 69.2976 53.5306 69.0101 54.1672 68.929C54.7684 68.8523 55.3814 68.9585 55.9348 69.4549C56.4773 69.9414 56.5385 70.4571 56.3853 70.8606C56.2217 71.2914 55.7461 71.7573 54.8874 71.9285C54.2225 72.061 53.0595 72.1405 52.0581 71.9497C51.0123 71.7504 50.5578 71.3606 50.4671 70.8726C50.3062 70.0063 49.7373 69.3404 49.0838 68.8499C48.4291 68.3585 47.6128 67.9829 46.7803 67.699C44.3376 66.8661 41.9474 66.9263 39.4368 66.9263C38.0818 66.9263 36.1665 67.1923 34.5131 67.7522C33.6856 68.0324 32.872 68.4033 32.2193 68.8891C31.5686 69.3733 30.997 70.0346 30.8385 70.899C30.7506 71.3779 30.3145 71.7569 29.3053 71.9518C28.3351 72.1391 27.2066 72.061 26.5622 71.9309C25.7375 71.7643 25.2783 71.3109 25.1193 70.8868C24.9695 70.4871 25.0313 69.979 25.5554 69.5027C26.0886 69.018 26.6756 68.916 27.2515 68.9904C27.8644 69.0695 28.4265 69.3506 28.7304 69.5716L29.6106 70.2115L30.2007 69.3177C30.2037 69.314 30.2265 69.2847 30.2894 69.2298C30.3591 69.1691 30.4567 69.0952 30.5898 69.0052C30.8361 68.8386 31.1404 68.6584 31.5156 68.4362L31.6394 68.3628C32.4757 67.8671 33.5536 67.2175 34.5288 66.3313ZM36.5386 63.8374L36.5403 63.8337C36.5392 63.8363 36.5386 63.8374 36.5386 63.8374ZM44.5159 63.799L44.5146 63.7963C44.5155 63.7982 44.5159 63.799 44.5159 63.799ZM44.1312 63.5626L44.1357 63.5628C44.1313 63.5628 44.1293 63.5626 44.1293 63.5626L44.1312 63.5626Z" fill=""/>
</svg>
