<svg width="80" height="80" viewBox="0 0 80 80" fill="none" xmlns="http://www.w3.org/2000/svg">
<path d="M5 59H11" stroke="" stroke-width="2"/>
<path d="M67 59H73" stroke="" stroke-width="2"/>
<path d="M74 46V56C74 56.5523 73.5523 57 73 57L58.5 57M8 46.7049V20C8 19.4477 7.55228 19 7 19H5C4.44772 19 4 19.4477 4 20V56C4 56.5523 4.44772 57 5 57H23.5" stroke="" stroke-width="2"/>
<path d="M8 45.5C7.50004 52 18.2 51.6 25 58C31.4352 64.0566 35.0045 58.6499 42 54.7978M75 47C71.9381 47 64.372 49.1941 59 50.5" stroke="" stroke-width="2"/>
<path d="M59.0077 54.876L59 54.9377V55V60C59 60.5523 58.5523 61 58 61H50H42.2656C41.6673 61 41.1815 60.4703 41.2437 59.8489C41.3838 58.4491 41.5413 56.6105 41.5878 55.0294C41.6532 52.807 41.3363 50.2132 41.031 48.287C40.9082 47.5125 41.5779 46.925 42.2268 47.0641C44.2213 47.4917 46.9836 48.1391 49.7127 48.9578C52.6235 49.8311 55.6512 49.5084 57.8488 49.0224C58.2783 48.9275 58.7509 49.0546 59.1054 49.3449C59.4548 49.6309 59.6161 50.0087 59.5696 50.3808L59.0077 54.876Z" stroke="" stroke-width="2"/>
<path d="M8.0531 40C8.0531 40 27.9429 37.5885 41 39.0001C52.6555 40.2601 63.0382 39.9324 69.1254 39.5174C72.1373 39.3121 74.7933 41.6775 74.7933 44.6964V48.5" stroke="" stroke-width="2"/>
<path d="M7.99995 29C7.99995 26.9393 12.3025 22.7269 16.2547 28.1918C17.628 30.0907 20.4796 33.2826 19.6123 35.5217C18.745 37.7607 13.4999 43 7.99995 29Z" stroke="" stroke-width="2"/>
</svg>
