<svg width="80" height="80" viewBox="0 0 80 80" fill="none" xmlns="http://www.w3.org/2000/svg">
<path d="M40 12H17V68H40" stroke="" stroke-width="2"/>
<path d="M40 12H63V68H40" stroke="" stroke-width="2"/>
<path d="M15 11C15 10.4477 15.4477 10 16 10H19C19.5523 10 20 10.4477 20 11C20 11.5523 19.5523 12 19 12H18.5C17.9477 12 17.5 12.4477 17.5 13V15C17.5 15.5523 17.0523 16 16.5 16H16C15.4477 16 15 15.5523 15 15V11Z" fill=""/>
<path d="M65 11C65 10.4477 64.5523 10 64 10H61C60.4477 10 60 10.4477 60 11C60 11.5523 60.4477 12 61 12H61.5C62.0523 12 62.5 12.4477 62.5 13V15C62.5 15.5523 62.9477 16 63.5 16H64C64.5523 16 65 15.5523 65 15V11Z" fill=""/>
<path d="M15 69C15 69.5523 15.4477 70 16 70H19C19.5523 70 20 69.5523 20 69C20 68.4477 19.5523 68 19 68H18.5C17.9477 68 17.5 67.5523 17.5 67V65C17.5 64.4477 17.0523 64 16.5 64H16C15.4477 64 15 64.4477 15 65V69Z" fill=""/>
<path d="M65 69C65 69.5523 64.5523 70 64 70H61C60.4477 70 60 69.5523 60 69C60 68.4477 60.4477 68 61 68H61.5C62.0523 68 62.5 67.5523 62.5 67V65C62.5 64.4477 62.9477 64 63.5 64H64C64.5523 64 65 64.4477 65 65V69Z" fill=""/>
<path d="M17 18H63" stroke="" stroke-width="2"/>
<path d="M17 22H63" stroke="" stroke-width="2"/>
<path d="M17 28H63" stroke="" stroke-width="2"/>
<line x1="37" y1="12" x2="37" y2="17" stroke="" stroke-width="2"/>
<line x1="42" y1="12" x2="42" y2="17" stroke="" stroke-width="2"/>
<line x1="37" y1="23" x2="37" y2="28" stroke="" stroke-width="2"/>
<line x1="42" y1="23" x2="42" y2="28" stroke="" stroke-width="2"/>
<line x1="37" y1="33" x2="37" y2="38" stroke="" stroke-width="2"/>
<line x1="42" y1="33" x2="42" y2="38" stroke="" stroke-width="2"/>
<line x1="37" y1="43" x2="37" y2="48" stroke="" stroke-width="2"/>
<line x1="42" y1="43" x2="42" y2="48" stroke="" stroke-width="2"/>
<line x1="37" y1="53" x2="37" y2="58" stroke="" stroke-width="2"/>
<line x1="42" y1="53" x2="42" y2="58" stroke="" stroke-width="2"/>
<line x1="37" y1="63" x2="37" y2="68" stroke="" stroke-width="2"/>
<line x1="42" y1="63" x2="42" y2="68" stroke="" stroke-width="2"/>
<path d="M17 32H63" stroke="" stroke-width="2"/>
<path d="M17 38H63" stroke="" stroke-width="2"/>
<path d="M17 42H63" stroke="" stroke-width="2"/>
<path d="M17 48H63" stroke="" stroke-width="2"/>
<path d="M17 52H63" stroke="" stroke-width="2"/>
<path d="M17 58H63" stroke="" stroke-width="2"/>
<path d="M17 62H63" stroke="" stroke-width="2"/>
</svg>
