<svg width="80" height="80" viewBox="0 0 80 80" fill="none" xmlns="http://www.w3.org/2000/svg">
<path d="M26 69C26 67.8954 26.8954 67 28 67H52C53.1046 67 54 67.8954 54 69V69C54 70.1046 53.1046 71 52 71H28C26.8954 71 26 70.1046 26 69V69Z" stroke="" stroke-width="2"/>
<path d="M38 44C38 42.8954 38.8954 42 40 42V42C41.1046 42 42 42.8954 42 44V67H38V44Z" stroke="" stroke-width="2"/>
<path d="M33.5212 11.2751C34.4435 9.8561 36.0211 9 37.7134 9H42.2866C43.9789 9 45.5565 9.85609 46.4788 11.2751L55.9915 25.91C56.8563 27.2405 55.9015 29 54.3146 29H25.6854C24.0985 29 23.1437 27.2405 24.0085 25.91L33.5212 11.2751Z" stroke="" stroke-width="2"/>
<line x1="40" y1="42" x2="40" y2="30" stroke="" stroke-width="2"/>
<line x1="48" y1="49" x2="48" y2="29" stroke="" stroke-width="2"/>
</svg>
