<svg width="80" height="80" viewBox="0 0 80 80" fill="none" xmlns="http://www.w3.org/2000/svg">
<path d="M8 51V41C8 40.4477 8.44772 40 9 40H10.5C10.7761 40 11 40.2239 11 40.5V40.5C11 41.3284 11.6716 42 12.5 42H44.5C45.3284 42 46 41.3284 46 40.5V40.5C46 40.2239 46.2239 40 46.5 40H48C48.5523 40 49 40.4477 49 41V51.5" stroke="" stroke-width="2"/>
<rect x="6" y="56" width="45" height="10" stroke="" stroke-width="2"/>
<path d="M7 67H11" stroke="" stroke-width="2"/>
<path d="M46 67H50" stroke="" stroke-width="2"/>
<path d="M7 55.5V53C7 51.8954 7.89543 51 9 51H48C49.1046 51 50 51.8954 50 53V55.5" stroke="" stroke-width="2"/>
<path d="M27 51C27 51 26.5556 49.4796 26.5556 48.5C26.5556 48.1684 26.6065 47.7747 26.6739 47.3991C26.7969 46.7134 26.2619 46.0505 25.5665 46.0927C23.8836 46.1948 21.0607 46.3448 19 46.3448C16.9393 46.3448 14.1164 46.1948 12.4335 46.0927C11.7381 46.0505 11.2031 46.7134 11.3261 47.3991C11.3935 47.7747 11.4444 48.1684 11.4444 48.5C11.4444 49.4796 11 51 11 51" stroke="" stroke-width="2"/>
<path d="M46 51C46 51 45.5556 49.4796 45.5556 48.5C45.5556 48.1684 45.6065 47.7747 45.6739 47.3991C45.7969 46.7134 45.2619 46.0505 44.5665 46.0927C42.8836 46.1948 40.0607 46.3448 38 46.3448C35.9393 46.3448 33.1164 46.1948 31.4335 46.0927C30.7381 46.0505 30.2031 46.7134 30.3261 47.3991C30.3935 47.7747 30.4444 48.1684 30.4444 48.5C30.4444 49.4796 30 51 30 51" stroke="" stroke-width="2"/>
<path d="M42 43V14H74V67" stroke="" stroke-width="2"/>
<path d="M58 67L58 14" stroke="" stroke-width="2"/>
<path d="M53 36V32" stroke="" stroke-width="2"/>
<path d="M63 36V32" stroke="" stroke-width="2"/>
<line x1="51" y1="66" x2="73" y2="66" stroke="" stroke-width="2"/>
</svg>
