<svg width="80" height="80" viewBox="0 0 80 80" fill="none" xmlns="http://www.w3.org/2000/svg">
<path d="M12 41H68V45H12V41Z" stroke="" stroke-width="2"/>
<ellipse cx="40" cy="24" rx="10" ry="13" stroke="" stroke-width="2"/>
<path d="M12 53L68 53" stroke="" stroke-width="2"/>
<path d="M37 49H43" stroke="" stroke-width="2"/>
<path d="M17 49H21" stroke="" stroke-width="2"/>
<path d="M17 57H21" stroke="" stroke-width="2"/>
<path d="M17 65H21" stroke="" stroke-width="2"/>
<path d="M59 49H63" stroke="" stroke-width="2"/>
<path d="M59 57H63" stroke="" stroke-width="2"/>
<path d="M59 65H63" stroke="" stroke-width="2"/>
<path d="M12 61H26" stroke="" stroke-width="2"/>
<path d="M54 61H68" stroke="" stroke-width="2"/>
<path d="M45.6941 27.3718L42.7415 31.8754" stroke="" stroke-width="2"/>
<rect x="12" y="45" width="14" height="25" stroke="" stroke-width="2"/>
<rect x="54" y="45" width="14" height="25" stroke="" stroke-width="2"/>
<path d="M68 41V38C68 35.2386 65.7614 33 63 33H47.5M12 41V38C12 35.2386 14.2386 33 17 33H32.5" stroke="" stroke-width="2"/>
</svg>
