<svg width="80" height="80" viewBox="0 0 80 80" fill="none" xmlns="http://www.w3.org/2000/svg">
<rect x="13" y="5" width="54" height="70" stroke="" stroke-width="2"/>
<path d="M14 66L66 66" stroke="" stroke-width="2"/>
<path d="M14 57L66 57" stroke="" stroke-width="2"/>
<path d="M40 31L66 31" stroke="" stroke-width="2"/>
<path d="M40 44L66 44" stroke="" stroke-width="2"/>
<path d="M40 57L40 9" stroke="" stroke-width="2"/>
<path d="M25 61H31" stroke="" stroke-width="2"/>
<path d="M49 61H55" stroke="" stroke-width="2"/>
<path d="M17 41V35" stroke="" stroke-width="2"/>
<path d="M25 70H31" stroke="" stroke-width="2"/>
<path d="M49 70H55" stroke="" stroke-width="2"/>
<path d="M14 9L66 9" stroke="" stroke-width="2"/>
<path d="M49.1308 17.0669C49.037 15.9384 49.94 15 51.0725 15H55.9275C57.06 15 57.963 15.9384 57.8692 17.0669C57.735 18.6803 57.4764 20.9077 57 22.5C56.7416 23.3637 56.1399 24.4441 55.6635 25.223C55.2719 25.8634 55.2222 26.6667 55.5755 27.329L56.2157 28.5294C56.5709 29.1955 56.0883 30 55.3333 30H51.6404C50.8917 30 50.4085 29.2074 50.7516 28.5419L51.3942 27.295C51.7267 26.6499 51.6819 25.8768 51.3134 25.2516C50.8532 24.4707 50.2616 23.3744 50 22.5C49.5236 20.9077 49.265 18.6803 49.1308 17.0669Z" stroke="" stroke-width="2"/>
<path d="M58.0002 18C59.7574 17.0425 62.171 19.0849 61.0002 21C59.7788 22.9977 56.7807 23.8404 56 24" stroke="" stroke-width="2"/>
<path d="M49.0002 18C47.243 17.0424 44.8292 19.0849 46.0001 21C47.2214 22.9977 49.5281 23.8404 50.3089 24" stroke="" stroke-width="2"/>
</svg>
