<svg width="38" height="31" viewBox="0 0 38 31" fill="none" xmlns="http://www.w3.org/2000/svg">
<rect x="1" y="1.45789" width="36" height="29" stroke=""/>
<rect x="1" y="10.4579" width="36" height="20" stroke=""/>
<path d="M28.5 14.9579H27.5C27.5 14.9579 27.5001 21.9579 27.5 22.9579C28.5 23.9579 30.5 23.9579 31.5 22.9579C31.5 21.9579 31.5 19.4579 31.5 19.4579H30.5C30.5 19.4579 30.5001 21.4579 30.5 22.4579C29.5 22.9579 29.5 22.9579 28.5 22.4579C28.5001 20.9579 28.5 19.4579 28.5 19.4579V14.9579Z" fill=""/>
<path d="M21.5 14.9579H20.5C20.5 14.9579 20.5001 21.9579 20.5 22.9579C21.5 23.9579 23.5 23.9579 24.5 22.9579C24.5 21.9579 24.5 19.4579 24.5 19.4579H23.5C23.5 19.4579 23.5001 21.4579 23.5 22.4579C22.5 22.9579 22.5 22.9579 21.5 22.4579C21.5001 20.9579 21.5 19.4579 21.5 19.4579V14.9579Z" fill=""/>
<path d="M14.5 14.9579H13.5C13.5 14.9579 13.5001 21.9579 13.5 22.9579C14.5 23.9579 16.5 23.9579 17.5 22.9579C17.5 21.9579 17.5 19.4579 17.5 19.4579H16.5C16.5 19.4579 16.5001 21.4579 16.5 22.4579C15.5 22.9579 15.5 22.9579 14.5 22.4579C14.5001 20.9579 14.5 19.4579 14.5 19.4579V14.9579Z" fill=""/>
<path d="M7.5 14.9579H6.5C6.5 14.9579 6.50012 21.9579 6.5 22.9579C7.5 23.9579 9.5 23.9579 10.5 22.9579C10.5 21.9579 10.5 19.4579 10.5 19.4579H9.5C9.5 19.4579 9.50013 21.4579 9.5 22.4579C8.5 22.9579 8.5 22.9579 7.5 22.4579C7.50012 20.9579 7.5 19.4579 7.5 19.4579V14.9579Z" fill=""/>
</svg>
