<svg width="80" height="80" viewBox="0 0 80 80" fill="none" xmlns="http://www.w3.org/2000/svg">
<path fill-rule="evenodd" clip-rule="evenodd" d="M72.9999 32C72.9999 30.8705 72.654 29.8753 72.0224 29.175C71.4059 28.4914 70.4385 28 68.9999 28C67.7054 28 66.2107 28.7532 65.2818 29.8906C64.7492 30.5429 64.0877 31.3028 63.3147 31.9011C62.5401 32.5006 61.5739 33 60.4413 33H51.2274H39H38.0136H19C17.8642 33 16.9058 32.4995 16.1439 31.8813C15.3852 31.2657 14.7551 30.4805 14.2545 29.78C13.4821 28.6993 12.2428 28 11 28C9.56141 28 8.59396 28.4914 7.97745 29.175C7.34581 29.8753 6.99998 30.8705 6.99998 32C6.99998 32.9133 7.27443 33.4747 7.63342 33.8533C8.01442 34.2551 8.57571 34.5391 9.27819 34.7236C11.1342 35.2113 13 36.7214 13 39V43C13 44.1046 13.8954 45 15 45H36.9999H39H64.9999C66.1044 45 66.9999 44.1046 66.9999 43V39C66.9999 36.7214 68.8657 35.2113 70.7217 34.7236C71.4242 34.5391 71.9854 34.2551 72.3665 33.8533C72.7254 33.4747 72.9999 32.9133 72.9999 32ZM39 47H64.9999C67.209 47 68.9999 45.2091 68.9999 43V39C68.9999 37.9649 69.881 37.0124 71.2299 36.658C72.1388 36.4192 73.0895 35.9974 73.8177 35.2294C74.568 34.4382 74.9999 33.3659 74.9999 32C74.9999 30.4767 74.5326 28.972 73.5076 27.8355C72.4676 26.6823 70.935 26 68.9999 26C67.0281 26 64.99 27.086 63.7327 28.6255C63.2174 29.2566 62.6743 29.8676 62.0905 30.3195C61.5083 30.7701 60.9655 31 60.4413 31H51.2274H39H38.0136H19C18.4789 31 17.9531 30.7737 17.4041 30.3283C16.8518 29.8802 16.3444 29.2646 15.8817 28.6171C14.7871 27.0855 12.9749 26 11 26C9.06485 26 7.5323 26.6823 6.49224 27.8355C5.4673 28.972 4.99998 30.4767 4.99998 32C4.99998 33.3659 5.43191 34.4382 6.18214 35.2294C6.91033 35.9974 7.86108 36.4192 8.76994 36.658C10.1189 37.0124 11 37.9649 11 39V43C11 45.2091 12.7908 47 15 47H36.9999H39Z" fill=""/>
<path d="M66.0009 46H62.0009V48.8197C62.0009 49.5959 62.1816 50.3615 62.5287 51.0557L63.5064 53.0111C63.8094 53.6172 64.4289 54 65.1064 54V54C66.4362 54 67.3011 52.6006 66.7064 51.4111L66.5287 51.0557C66.1816 50.3615 66.0009 49.5959 66.0009 48.8197V46Z" stroke="" stroke-width="2"/>
<path d="M14.0009 46H18.0009V48.8197C18.0009 49.5959 17.8201 50.3615 17.473 51.0557L16.4953 53.0111C16.1923 53.6172 15.5728 54 14.8953 54V54C13.5655 54 12.7006 52.6006 13.2953 51.4111L13.473 51.0557C13.8201 50.3615 14.0009 49.5959 14.0009 48.8197V46Z" stroke="" stroke-width="2"/>
<path d="M17.0009 28.875C17.0009 27.8395 17.8403 27 18.8759 27H30.0009C31.6577 27 33.0009 28.3431 33.0009 30V32H20.1259C18.4 32 17.0009 30.6009 17.0009 28.875V28.875Z" stroke="" stroke-width="2"/>
<path d="M62.1128 30.6101C63.2767 29.1552 62.2408 27 60.3777 27H51.0009C49.344 27 48.0009 28.3431 48.0009 30V32H59.2209C60.3459 32 61.41 31.4886 62.1128 30.6101V30.6101Z" stroke="" stroke-width="2"/>
<path d="M33.0009 30C33.0009 28.3431 34.344 27 36.0009 27H45.0009C46.6577 27 48.0009 28.3431 48.0009 30V32H33.0009V30Z" stroke="" stroke-width="2"/>
</svg>
