<svg width="80" height="80" viewBox="0 0 80 80" fill="none" xmlns="http://www.w3.org/2000/svg">
<rect x="10" y="8" width="28" height="64" stroke="" stroke-width="2"/>
<path d="M38 63L70 63" stroke="" stroke-width="2"/>
<path d="M10 23H59" stroke="" stroke-width="2"/>
<path d="M58 18L70 18" stroke="" stroke-width="2"/>
<path d="M58 27L70 27" stroke="" stroke-width="2"/>
<path d="M58 36L70 36" stroke="" stroke-width="2"/>
<path d="M58 45L70 45" stroke="" stroke-width="2"/>
<path d="M58 54L70 54" stroke="" stroke-width="2"/>
<path d="M34 47V43" stroke="" stroke-width="2"/>
<path d="M24 71L24 9" stroke="" stroke-width="2"/>
<path d="M28 20V16" stroke="" stroke-width="2"/>
<path d="M20 20V16" stroke="" stroke-width="2"/>
<path d="M52 20V16" stroke="" stroke-width="2"/>
<path d="M44 20V16" stroke="" stroke-width="2"/>
<path d="M46 67H50" stroke="" stroke-width="2"/>
<path d="M48 22V8" stroke="" stroke-width="2"/>
<path d="M43 31V28" stroke="" stroke-width="2"/>
<path d="M48 31V28" stroke="" stroke-width="2"/>
<path d="M53 31V28" stroke="" stroke-width="2"/>
<rect x="38" y="8" width="20" height="64" stroke="" stroke-width="2"/>
<path d="M58 8H60C65.5228 8 70 12.4772 70 18V72H58V8Z" stroke="" stroke-width="2"/>
</svg>
