<svg width="80" height="80" viewBox="0 0 80 80" fill="none" xmlns="http://www.w3.org/2000/svg">
<path d="M5 31C5 29.8954 5.89543 29 7 29V29C8.10457 29 9 29.8954 9 31V59H5V31Z" stroke="" stroke-width="2"/>
<circle cx="20" cy="51" r="2" stroke="" stroke-width="2"/>
<circle cx="51" cy="51" r="2" stroke="" stroke-width="2"/>
<path d="M71 23C71 21.8954 71.8954 21 73 21V21C74.1046 21 75 21.8954 75 23V59H71V23Z" stroke="" stroke-width="2"/>
<path d="M8.88867 57.0513H71.1109" stroke="" stroke-width="2"/>
<path d="M67.5 34.5L67.9987 31.5077C68.2742 29.8546 67.142 28.2963 65.4846 28.0477L63.6854 27.7778C60.3166 27.2725 56.8745 27.8555 53.86 29.4421L50.6028 31.1564C49.6171 31.6752 49 32.6974 49 33.8112V36.5" stroke="" stroke-width="2"/>
<path d="M31 57L31 52L31 47" stroke="" stroke-width="2"/>
<path d="M9 40C8.50003 46.5 25.2 41.6 32 48C38.4352 54.0566 41.5045 49.8521 48.5 46C55.4955 42.1479 71.5 43.5 71.5 43.5" stroke="" stroke-width="2"/>
<path d="M9 37.9999C9 37.9999 27.5 34.4999 42 35.9999C52.3561 37.0712 59.7888 35.9432 64.5354 34.6153C67.4187 33.8087 71 36.0059 71 38.9999V38.9999" stroke="" stroke-width="2"/>
</svg>
