<svg width="34" height="31" viewBox="0 0 34 31" fill="none" xmlns="http://www.w3.org/2000/svg">
<path d="M5.52515 10.4247C6.28675 10.6054 6.89737 11.1262 7.10348 12.0621V12.0635V12.0727V12.0822V12.092V12.1022V12.1128V12.1237V12.135V12.1466V12.1585V12.1709V12.1835V12.1966V12.2099V12.2236V12.2377V12.2521V12.2668V12.2818V12.2972V12.313V12.329V12.3454V12.3622V12.3792V12.3966V12.4143V12.4324V12.4507V12.4694V12.4884V12.5077V12.5273V12.5473V12.5675V12.5881V12.609V12.6302V12.6517V12.6735V12.6956V12.718V12.7407V12.7637V12.787V12.8106V12.8345V12.8587V12.8832V12.908V12.933V12.9584V12.984V13.0099V13.0361V13.0626V13.0894V13.1164V13.1438V13.1714V13.1992V13.2274V13.2558V13.2845V13.3134V13.3427V13.3721V13.4019V13.4319V13.4622V13.4927V13.5235V13.5545V13.5858V13.6174V13.6492V13.6812V13.7135V13.7461V13.7789V13.8119V13.8452V13.8787V13.9125V13.9465V13.9807V14.0152V14.0499V14.0848V14.12V14.1554V14.191V14.2269V14.2629V14.2992V14.3357V14.3725V14.4094V14.4466V14.484V14.5216V14.5594V14.5974V14.6356V14.6741V14.7127V14.7516V14.7906V14.8299V14.8693V14.909V14.9488V14.9889V15.0291V15.0696V15.1102V15.151V15.192V15.2332V15.2746V15.3161V15.3579V15.3998V15.4419V15.4842V15.5266V15.5692V15.612V15.655V15.6982V15.7415V15.785V15.8286V15.8724V15.9164V15.9605V16.0048V16.0492V16.0938V16.1386V16.1835V16.2286V16.2738V16.3192V16.3647V16.4103V16.4561V16.5021V16.5482V16.5944V16.6408V16.6873V16.7339V16.7807V16.8276V16.8746V16.9218V16.969V17.0165V17.064V17.1117V17.1595V17.2074V17.2554V17.3035V17.3518V17.4002V17.4487V17.4973V17.546V17.5948V17.6437V17.6927V17.7418V17.7911V17.8404V17.8898V17.9394V17.989V18.0387V18.0885V18.1384V18.1884V18.2385V18.2887V18.339V18.3893V18.4397V18.4902V18.5408V18.5915V18.6422V18.693V18.7439V18.7949V18.8459V18.897V18.9482V18.9994V19.0507V19.102V19.1535V19.205V19.2565V19.3081V19.3597V19.4114V19.4632V19.515V19.5669V19.6188V19.6707V19.7227V19.7748V19.8269V19.879V19.9311V19.9833V20.0356V20.0878V20.1401V20.1925V20.2448V20.2972V20.3496V20.4021V20.4546V20.5071V20.5596V20.6121V20.6646V20.7172V20.7698V20.8224V20.875V20.9276V20.9802V21.0328V21.0855V21.1381V21.1908V21.2434V21.296V21.3487V21.4013V21.454V21.5066V21.5592V21.6118V21.6644V21.717V21.7696V21.8221V21.8747V21.9272V21.9797V22.0322V22.0846V22.137V22.1894V22.2418V22.2942V22.3465V22.3988V22.451V22.5033V22.5554V22.6076V22.6597V22.7117V22.7638V22.8157V22.8677V22.9196V22.9714V23.0232V23.0749V23.1266V23.1782V23.2298V23.2813V23.3327V23.3841V23.4355V23.4867V23.5379V23.5891V23.6401V23.6911V23.742V23.7929V23.8437V23.8944V23.945V23.9955V24.046V24.0964V24.1467V24.1969V24.247V24.2971V24.347V24.3969V24.4467V24.4963V24.5459V24.5954V24.6448V24.6941V24.7433V24.7923V24.8413V24.8902V24.9389V24.9876V25.0361V25.0846V25.1329V25.1811V25.2292V25.2771V25.325V25.3727V25.4203V25.4678V25.5152V25.5624V25.6095V25.6565V25.7033V25.75V25.7966V25.843V25.8893V25.9355V25.9815V26.0274V26.0731V26.1187V26.1641V26.2094V26.2546V26.2995V26.3444V26.3891V26.4336V26.478V26.5222V26.5662V26.6101V26.6539V26.6974V26.7408V26.784V26.8271V26.87V26.9127V26.9552V26.9976V27.0398V27.0818V27.1237V27.1653V27.2068V27.2481V27.2892V27.3301V27.3708V27.4113V27.4517V27.4918V27.5318V27.5715V27.6111V27.6504V27.6896V27.7285V27.7673V27.8058V27.8442V27.8823V27.9202V27.9579V27.9954V28.0327V28.0698V28.1066V28.1433V28.1797V28.2158V28.2518V28.2875V28.3231V28.3583V28.3934V28.4282V28.4628V28.4972V28.5313V28.5652V28.5988V28.6322V28.6654V28.6983V28.731V28.7634V28.7956V28.8275V28.8592V28.8906V28.9218V28.9527V28.9834V29.0138V29.0439V29.0738V29.1034V29.1328V29.1619V29.1907V29.2193V29.2475V29.2756V29.3033V29.3308V29.358V29.3849V29.4115V29.4379V29.4639V29.4897V29.5152V29.5404V29.5653V29.59V29.6143V29.6384V29.6621V29.6856V29.7087V29.7316V29.7542V29.7764V29.7984V29.82V29.8414V29.8624V29.8832V29.9036V29.9237V29.9435V29.9629V29.9821V30.0009V30.0043H4.55609C4.57223 29.8106 4.5904 29.5712 4.60801 29.2938C4.65751 28.5139 4.7027 27.4312 4.68531 26.2201C4.65087 23.8212 4.37105 20.8303 3.33015 18.7098C3.01531 18.0684 2.60122 17.5221 2.25306 17.0627C2.23685 17.0414 2.22079 17.0202 2.20489 16.9992C1.82616 16.4989 1.56966 16.1411 1.4702 15.8164C1.21036 14.9681 1.20928 13.9884 1.45863 13.0996C1.70819 12.21 2.19662 11.4501 2.87598 10.9947C3.7332 10.4201 4.7253 10.2349 5.52515 10.4247Z" stroke=""/>
<path d="M29.0507 10.4251C28.2957 10.6053 27.6883 11.1251 27.4832 12.0624V12.0642V12.0733V12.0828V12.0926V12.1028V12.1134V12.1243V12.1356V12.1472V12.1592V12.1715V12.1841V12.1972V12.2105V12.2242V12.2383V12.2527V12.2674V12.2825V12.2979V12.3136V12.3297V12.3461V12.3628V12.3798V12.3972V12.4149V12.433V12.4513V12.47V12.489V12.5083V12.5279V12.5479V12.5681V12.5887V12.6096V12.6308V12.6523V12.6741V12.6962V12.7186V12.7413V12.7643V12.7876V12.8112V12.8351V12.8593V12.8838V12.9086V12.9336V12.959V12.9846V13.0105V13.0367V13.0632V13.09V13.117V13.1444V13.172V13.1998V13.228V13.2564V13.2851V13.314V13.3433V13.3728V13.4025V13.4325V13.4628V13.4933V13.5241V13.5552V13.5864V13.618V13.6498V13.6819V13.7142V13.7467V13.7795V13.8125V13.8458V13.8793V13.9131V13.9471V13.9813V14.0158V14.0505V14.0854V14.1206V14.156V14.1916V14.2275V14.2635V14.2998V14.3363V14.3731V14.41V14.4472V14.4846V14.5222V14.56V14.598V14.6363V14.6747V14.7133V14.7522V14.7912V14.8305V14.87V14.9096V14.9495V14.9895V15.0297V15.0702V15.1108V15.1516V15.1926V15.2338V15.2752V15.3167V15.3585V15.4004V15.4425V15.4848V15.5272V15.5699V15.6127V15.6556V15.6988V15.7421V15.7856V15.8292V15.873V15.917V15.9611V16.0054V16.0498V16.0945V16.1392V16.1841V16.2292V16.2744V16.3198V16.3653V16.4109V16.4567V16.5027V16.5488V16.595V16.6414V16.6879V16.7345V16.7813V16.8282V16.8752V16.9224V16.9697V17.0171V17.0646V17.1123V17.1601V17.208V17.256V17.3041V17.3524V17.4008V17.4493V17.4979V17.5466V17.5954V17.6443V17.6933V17.7425V17.7917V17.841V17.8905V17.94V17.9896V18.0393V18.0891V18.1391V18.189V18.2391V18.2893V18.3396V18.3899V18.4403V18.4908V18.5414V18.5921V18.6428V18.6936V18.7445V18.7955V18.8465V18.8976V18.9488V19V19.0513V19.1027V19.1541V19.2056V19.2571V19.3087V19.3603V19.4121V19.4638V19.5156V19.5675V19.6194V19.6713V19.7233V19.7754V19.8275V19.8796V19.9317V19.9839V20.0362V20.0884V20.1408V20.1931V20.2454V20.2978V20.3503V20.4027V20.4552V20.5077V20.5602V20.6127V20.6652V20.7178V20.7704V20.823V20.8756V20.9282V20.9808V21.0334V21.0861V21.1387V21.1914V21.244V21.2966V21.3493V21.4019V21.4546V21.5072V21.5598V21.6124V21.665V21.7176V21.7702V21.8227V21.8753V21.9278V21.9803V22.0328V22.0852V22.1377V22.1901V22.2424V22.2948V22.3471V22.3994V22.4516V22.5039V22.556V22.6082V22.6603V22.7124V22.7644V22.8163V22.8683V22.9202V22.972V23.0238V23.0755V23.1272V23.1788V23.2304V23.2819V23.3333V23.3847V23.4361V23.4873V23.5385V23.5897V23.6407V23.6917V23.7427V23.7935V23.8443V23.895V23.9456V23.9962V24.0466V24.097V24.1473V24.1975V24.2477V24.2977V24.3476V24.3975V24.4473V24.4969V24.5465V24.596V24.6454V24.6947V24.7439V24.7929V24.8419V24.8908V24.9396V24.9882V25.0367V25.0852V25.1335V25.1817V25.2298V25.2778V25.3256V25.3733V25.4209V25.4684V25.5158V25.563V25.6101V25.6571V25.7039V25.7506V25.7972V25.8436V25.8899V25.9361V25.9821V26.028V26.0737V26.1193V26.1647V26.21V26.2552V26.3002V26.345V26.3897V26.4342V26.4786V26.5228V26.5668V26.6107V26.6545V26.698V26.7414V26.7846V26.8277V26.8706V26.9133V26.9559V26.9982V27.0404V27.0824V27.1243V27.1659V27.2074V27.2487V27.2898V27.3307V27.3714V27.4119V27.4523V27.4924V27.5324V27.5721V27.6117V27.651V27.6902V27.7291V27.7679V27.8064V27.8448V27.8829V27.9208V27.9585V27.996V28.0333V28.0704V28.1072V28.1439V28.1803V28.2165V28.2524V28.2882V28.3237V28.3589V28.394V28.4288V28.4634V28.4978V28.5319V28.5658V28.5994V28.6328V28.666V28.6989V28.7316V28.764V28.7962V28.8281V28.8598V28.8912V28.9224V28.9533V28.984V29.0144V29.0445V29.0744V29.104V29.1334V29.1625V29.1913V29.2199V29.2482V29.2762V29.3039V29.3314V29.3586V29.3855V29.4121V29.4385V29.4645V29.4903V29.5158V29.541V29.566V29.5906V29.6149V29.639V29.6627V29.6862V29.7094V29.7322V29.7548V29.777V29.799V29.8207V29.842V29.863V29.8838V29.9042V29.9243V29.9441V29.9636V29.9827V30.0016V30.0049H30.0099C29.9939 29.8112 29.9758 29.5717 29.9583 29.2942C29.9091 28.5144 29.8641 27.4318 29.8814 26.2207C29.9157 23.822 30.1938 20.8315 31.2285 18.7115C31.5415 18.0702 31.9531 17.5238 32.2993 17.0644C32.3154 17.0431 32.3313 17.0219 32.3471 17.0009C32.7236 16.5008 32.9787 16.1428 33.0777 15.8178C33.3362 14.969 33.3373 13.9888 33.0892 13.0995C32.8409 12.2092 32.3552 11.4496 31.6804 10.9946C30.8288 10.4204 29.844 10.2358 29.0507 10.4251Z" stroke=""/>
<path d="M27.4612 21.3276V30.0018H7.10675V21.3272C7.26144 21.3393 7.44613 21.3536 7.65669 21.3694C8.3368 21.4208 9.28709 21.4892 10.3681 21.5576C12.527 21.6943 15.2184 21.8317 17.3198 21.8317C19.4214 21.8317 22.0949 21.6942 24.236 21.5576C25.3081 21.4892 26.2494 21.4207 26.9228 21.3694C27.1286 21.3537 27.3093 21.3397 27.4612 21.3276Z" stroke=""/>
<path d="M27.4612 14.7859V21.2368C27.2939 21.2505 27.0846 21.2673 26.84 21.2865C26.1662 21.3392 25.2244 21.4095 24.1526 21.4798C22.006 21.6206 19.3496 21.7606 17.2815 21.7606C15.2143 21.7606 12.5592 21.6206 10.4136 21.4798C9.34233 21.4095 8.40096 21.3392 7.72747 21.2865C7.48303 21.2673 7.27392 21.2505 7.10675 21.2369V14.7859C7.27368 14.7723 7.48242 14.7555 7.72641 14.7365C8.39937 14.684 9.34011 14.6139 10.4109 14.5439C12.5557 14.4036 15.2109 14.2641 17.2815 14.264C19.3531 14.264 22.0095 14.4035 24.1553 14.5438C25.2266 14.6138 26.1678 14.6839 26.841 14.7365C27.0852 14.7555 27.2942 14.7723 27.4612 14.7859Z" stroke=""/>
<path d="M17.2834 0.875606C15.2559 0.881145 12.1998 1.71097 12.1998 1.71097C12.1998 1.71097 11.2257 0.504385 10.0641 0.504883C8.34626 0.50562 7.50844 1.54558 7.23618 2.12225C6.89652 2.84166 6.89939 3.75681 7.54463 4.56055C7.68118 4.73065 8.10578 5.05098 8.10578 5.05098C8.10578 5.05098 7.88124 5.91495 7.76895 6.47445C7.12668 9.67458 7.76895 14.8088 7.76895 14.8088C7.76895 14.8088 13.6027 14.2255 17.3258 14.2255C21.222 14.2255 27.2792 14.8088 27.2792 14.8088" stroke=""/>
<path d="M26.7981 14.8088C26.7981 14.8088 27.4404 9.67458 26.7981 6.47445C26.6858 5.91495 26.4613 5.05098 26.4613 5.05098C26.4613 5.05098 26.8859 4.73065 27.0225 4.56055C27.6677 3.75681 27.6706 2.84166 27.3309 2.12225C27.0586 1.54558 26.2208 0.50562 24.503 0.504883C23.3414 0.504385 22.3673 1.71097 22.3673 1.71097C22.3673 1.71097 19.3129 0.88282 17.2853 0.877281" stroke=""/>
</svg>
