<svg width="80" height="80" viewBox="0 0 80 80" fill="none" xmlns="http://www.w3.org/2000/svg">
<path d="M17.9675 24.6575C18.4758 23.6416 19.5144 23 20.6503 23H58.4245C59.5251 23 60.5373 23.6027 61.0618 24.5702L72.6374 45.9228C72.8754 46.3617 73 46.8532 73 47.3525V54C73 55.6568 71.6569 57 70 57H10C8.34315 57 7 55.6569 7 54V47.283C7 46.8169 7.10859 46.3573 7.31716 45.9405L17.9675 24.6575Z" stroke="" stroke-width="2"/>
<path d="M8.5 44L14.2373 40.9602C15.375 40.3574 16.7335 40.3391 17.8871 40.9112L20.3221 42.1187C21.4418 42.674 22.7566 42.674 23.8763 42.1187L26.4405 40.8471C27.5211 40.3113 28.7858 40.2916 29.8825 40.7936L32.8888 42.1698C34.0308 42.6926 35.3522 42.6485 36.4569 42.0509L38.4247 40.9863C39.568 40.3678 40.9405 40.3435 42.1051 40.921L44.5893 42.1529C45.6699 42.6887 46.9345 42.7084 48.0313 42.2064L51.1175 40.7936C52.2142 40.2916 53.4789 40.3113 54.5595 40.8471L57.0437 42.079C58.2082 42.6565 59.5808 42.6322 60.7241 42.0137L62.6918 40.9491C63.7966 40.3515 65.1179 40.3074 66.26 40.8302L71 43" stroke="" stroke-width="2"/>
<path d="M15 32.5L20.3252 35.1254C21.4432 35.6766 22.7543 35.6751 23.8711 35.1213L26.4405 33.8471C27.5211 33.3113 28.7858 33.2916 29.8825 33.7936L32.8887 35.1698C34.0308 35.6926 35.3521 35.6485 36.4569 35.0509L38.4247 33.9863C39.568 33.3678 40.9405 33.3435 42.105 33.921L44.5893 35.1529C45.6698 35.6887 46.9345 35.7084 48.0312 35.2064L51.1175 33.7936C52.2142 33.2916 53.4789 33.3113 54.5595 33.8471L57.0624 35.0883C58.2165 35.6606 59.5756 35.6421 60.7137 35.0385L65.5 32.5" stroke="" stroke-width="2"/>
<path d="M16.0496 27L20.3221 29.1187C21.4417 29.674 22.7566 29.674 23.8762 29.1187L26.4405 27.8471C27.5211 27.3113 28.7858 27.2916 29.8825 27.7936L32.8887 29.1698C34.0308 29.6926 35.3521 29.6485 36.4569 29.0509L38.4247 27.9863C39.568 27.3678 40.9405 27.3435 42.105 27.921L44.5893 29.1529C45.6698 29.6887 46.9345 29.7084 48.0312 29.2064L51.1175 27.7936C52.2142 27.2916 53.4789 27.3113 54.5595 27.8471L57.1381 29.1259C58.2496 29.6771 59.554 29.6813 60.6691 29.1372L63 28" stroke="" stroke-width="2"/>
</svg>
