<svg width="67" height="31" viewBox="0 0 67 31" fill="none" xmlns="http://www.w3.org/2000/svg">
<rect x="0.434326" y="0.199219" width="0.07" height="30" fill=""/>
<rect x="11.2792" y="10.9604" width="0.07" height="19.2388" fill=""/>
<rect x="22.124" y="0.199219" width="0.07" height="30" fill=""/>
<rect x="32.9689" y="0.199219" width="0.07" height="20.8804" fill=""/>
<rect x="0.434326" y="1.19922" width="0.07" height="66.0691" transform="rotate(-90 0.434326 1.19922)" fill=""/>
<rect x="0.434326" y="30.1992" width="0.07" height="66.0691" transform="rotate(-90 0.434326 30.1992)" fill=""/>
<rect x="0.434326" y="11.9604" width="0.07" height="22.6897" transform="rotate(-90 0.434326 11.9604)" fill=""/>
<rect x="43.8137" y="11.9604" width="0.07" height="22.6897" transform="rotate(-90 43.8137 11.9604)" fill=""/>
<rect x="22.1239" y="21.0796" width="0.07" height="22.6897" transform="rotate(-90 22.1239 21.0796)" fill=""/>
<rect x="43.8137" y="0.199219" width="0.07" height="30" fill=""/>
<rect x="54.6586" y="10.9604" width="0.07" height="19.2388" fill=""/>
<rect x="65.5034" y="0.199219" width="0.07" height="30" fill=""/>
<rect x="7.1847" y="13.3041" width="14.8711" height="4.66824" transform="rotate(76.4227 7.1847 13.3041)" stroke=""/>
<rect x="50.564" y="13.3041" width="14.8711" height="4.66824" transform="rotate(76.4227 50.564 13.3041)" stroke=""/>
<rect x="28.8744" y="4.36854" width="14.8711" height="4.66824" transform="rotate(76.4227 28.8744 4.36854)" stroke=""/>
<rect x="59.6597" y="28.6992" width="14.8711" height="4.66824" transform="rotate(-90 59.6597 28.6992)" stroke=""/>
<rect x="46.4584" y="9.34961" width="6.14595" height="4.66824" transform="rotate(-90 46.4584 9.34961)" stroke=""/>
<rect x="2.74146" y="9.34961" width="6.14595" height="4.66824" transform="rotate(-90 2.74146 9.34961)" stroke=""/>
<rect x="24.9312" y="28.2124" width="6.14595" height="4.66824" transform="rotate(-90 24.9312 28.2124)" stroke=""/>
<rect x="53.3245" y="9.34961" width="6.14595" height="10.2094" transform="rotate(-90 53.3245 9.34961)" stroke=""/>
<rect x="9.60754" y="9.34961" width="6.14595" height="10.2094" transform="rotate(-90 9.60754 9.34961)" stroke=""/>
<rect x="31.7972" y="28.2124" width="6.14595" height="10.2094" transform="rotate(-90 31.7972 28.2124)" stroke=""/>
</svg>
