<svg width="40" height="30" viewBox="0 0 40 30" fill="none" xmlns="http://www.w3.org/2000/svg">
<rect x="0.5" y="0.5" width="39" height="28.9997" stroke=""/>
<rect x="7.11301" y="0.22998" width="0.07" height="29.77" fill=""/>
<rect x="13.7276" y="0.22998" width="0.07" height="29.77" fill=""/>
<rect x="25.3546" y="0.22998" width="0.07" height="29.77" fill=""/>
<rect x="33.648" y="8.46729" width="0.07" height="3.35427" fill=""/>
<rect x="33.648" y="22.3828" width="0.07" height="3.35427" fill=""/>
<rect x="8.50327" y="22.3828" width="0.07" height="3.35427" fill=""/>
<rect x="30.6467" y="8.46729" width="0.07" height="3.35427" fill=""/>
<rect x="30.6467" y="22.3828" width="0.07" height="3.35427" fill=""/>
<rect x="5.50198" y="22.3828" width="0.07" height="3.35427" fill=""/>
<rect x="8.50327" y="8.46729" width="0.07" height="3.35427" fill=""/>
<rect x="23.8638" y="4.59961" width="0.07" height="3.35427" fill=""/>
<rect x="23.8638" y="22.3828" width="0.07" height="3.35427" fill=""/>
<rect x="5.50198" y="8.46729" width="0.07" height="3.35427" fill=""/>
<rect x="38.997" y="17.9753" width="0.07" height="13.6419" transform="rotate(90 38.997 17.9753)" fill=""/>
<rect x="13.7276" y="17.9753" width="0.07" height="13.6419" transform="rotate(90 13.7276 17.9753)" fill=""/>
<rect x="25.3546" y="10.99" width="0.07" height="11.1051" transform="rotate(90 25.3546 10.99)" fill=""/>
<rect x="25.3546" y="17.9753" width="0.07" height="11.1051" transform="rotate(90 25.3546 17.9753)" fill=""/>
<rect x="32.2578" y="0.49707" width="0.07" height="29.503" fill=""/>
</svg>
