<svg width="80" height="80" viewBox="0 0 80 80" fill="none" xmlns="http://www.w3.org/2000/svg">
<path d="M20 18C21.7779 21.1607 25.4838 28.5553 26.4094 32.0614C28.3202 39.2992 28.5933 44.57 29.1859 48.5209C32.7787 47.9283 39.6597 47.6372 45.112 47.6372C50.5643 47.6372 53.1878 47.9283 53.7804 47.9283" stroke="#353535"/>
<path d="M27.6309 38.2346C32.5913 37.366 43.6013 35.7756 47.0223 36.2379C51.1034 36.7895 51.2037 38.3908 51.8214 39.6068" stroke="#353535"/>
<path d="M46.499 47.5518L52.5277 58.8477" stroke="#353535"/>
<path d="M33.9233 48.291L27.8311 59.1107" stroke="#353535"/>
<path d="M20.042 55.8914C23.289 57.774 31.8074 61.4822 39.9049 61.2538C48.0024 61.0253 56.4362 57.1606 59.6409 55.2568" stroke="#353535"/>
<path d="M20.7773 18.6989C22.7451 17.3214 28.0515 18.9386 30.4044 22.9283C34.4701 29.8222 35.1771 37.3348 33.4095 47.5873" stroke="#353535"/>
<path d="M52.7458 47.824C52.7458 45.8988 51.642 42.6774 47.5349 42.0186C43.4278 41.3599 37.9851 41.7892 34.3809 43.7777" stroke="#353535"/>
</svg>
