<svg width="80" height="80" viewBox="0 0 80 80" fill="none" xmlns="http://www.w3.org/2000/svg">
<rect x="6" y="24" width="68" height="32" stroke="#353535"/>
<path d="M29 56L29 40" stroke="#353535"/>
<path d="M38 52H43" stroke="#353535"/>
<path d="M15 52H20" stroke="#353535"/>
<path d="M30.5357 39.5423L28 34.1045" stroke="#353535"/>
<path d="M13.9167 39.6883L8 27" stroke="#353535"/>
<path d="M18.1157 40.1152L12 27" stroke="#353535"/>
<path d="M22.0714 39.8757L17 29" stroke="#353535"/>
<path d="M26.3809 40.2505L23 33" stroke="#353535"/>
<path d="M52 40H6" stroke="#353535"/>
<path d="M52 56V24" stroke="#353535"/>
<path d="M60 39H66V43L65.1042 47.4792C65.0359 47.8205 65.0579 48.1737 65.168 48.5039L65.846 50.5381C65.948 50.844 66 51.1644 66 51.4868V52C66 53.1046 65.1046 54 64 54H62C60.8954 54 60 53.1046 60 52V51.4868C60 51.1644 60.052 50.844 60.154 50.5381L60.832 48.5039C60.9421 48.1737 60.9641 47.8205 60.8958 47.4792L60 43V39Z" stroke="#353535"/>
</svg>
