<svg width="80" height="80" viewBox="0 0 80 80" fill="none" xmlns="http://www.w3.org/2000/svg">
<rect x="10" y="19" width="60" height="5" rx="2.5" stroke="#353535"/>
<path d="M26 33V24" stroke="#353535"/>
<path d="M54 33V24" stroke="#353535"/>
<path d="M36 28H44" stroke="#353535"/>
<path d="M63 33H17" stroke="#353535"/>
<path d="M61.8507 24.5068C61.8507 24.5068 63.5864 29.833 63.0058 33C61.486 41.2906 58.3747 44.7129 61.0453 54C61.524 55.6645 62.3887 57.6599 63.0571 59.0937C63.5338 60.1163 64.8071 60.4416 65.74 59.8072V59.8072C66.4409 59.3305 66.7375 58.4454 66.4808 57.6375C66.0125 56.1642 65.2991 53.7871 64.9663 52C62.9841 41.3562 72.0384 35.4602 67.907 26C67.554 25.1918 66.8062 24 66.8062 24" stroke="#353535"/>
<path d="M18.1493 24.5068C18.1493 24.5068 16.4136 29.833 16.9942 33C18.514 41.2906 21.6253 44.7129 18.9547 54C18.476 55.6645 17.6113 57.6599 16.9429 59.0937C16.4662 60.1163 15.1929 60.4416 14.26 59.8072V59.8072C13.5591 59.3305 13.2625 58.4454 13.5192 57.6375C13.9875 56.1642 14.7009 53.7871 15.0337 52C17.0159 41.3562 7.96161 35.4602 12.093 26C12.446 25.1918 13.1938 24 13.1938 24" stroke="#353535"/>
</svg>
