<svg width="80" height="80" viewBox="0 0 80 80" fill="none" xmlns="http://www.w3.org/2000/svg">
<path d="M32.0709 71C32.5561 67.6077 35.4735 65 39 65H41C44.5265 65 47.4439 67.6077 47.9291 71H32.0709Z" stroke="" stroke-width="2"/>
<line x1="40" y1="65" x2="40" y2="20" stroke="" stroke-width="2"/>
<path d="M40.3627 20.479C38.6717 20.2203 34.7039 20.2501 32.4589 16.3913C30.38 12.818 30.1925 9.90547 30.1925 9.90547" stroke="" stroke-width="2"/>
<path d="M39 20.479C40.691 20.2203 44.6589 20.2501 46.9039 16.3913C48.9828 12.818 49.1702 9.90547 49.1702 9.90547" stroke="" stroke-width="2"/>
<path d="M45.4509 22.6402C45.1653 23.2656 44.7385 24.8043 43.0165 25.2413C41.4219 25.646 40.2886 25.3926 40.2886 25.3926" stroke="" stroke-width="2"/>
<path d="M34.5777 23.0001C34.8633 23.6255 35.29 25.1642 37.012 25.6012C38.6066 26.0058 39.74 25.7525 39.74 25.7525" stroke="" stroke-width="2"/>
<line x1="40" y1="21" x2="40" y2="10" stroke="" stroke-width="2"/>
</svg>
