<svg width="80" height="80" viewBox="0 0 80 80" fill="none" xmlns="http://www.w3.org/2000/svg">
<path d="M59 40H73V33H7V40H21" stroke="" stroke-width="2"/>
<path d="M50 33L49.4348 29.6095C49.1498 27.8993 49.3536 26.1568 49.8689 24.5013C49.9443 24.2591 49.9945 24.075 49.9999 24M29 33L29.5651 29.6092C29.8501 27.8991 29.6464 26.1569 29.1312 24.5016C29.0558 24.2592 29.0055 24.075 29.0001 24M29.0001 24C28.9272 22.9766 28.8986 21.8368 28.8941 20.7457C28.8831 18.0849 31.0868 16 33.7477 16H45.2523C47.9132 16 50.1169 18.0849 50.1059 20.7457C50.1014 21.8368 50.0728 22.9766 49.9999 24M29.0001 24C36.2323 27.9216 42.4358 27.9216 49.9999 24" stroke="" stroke-width="2"/>
<path d="M21 38H59V46H21V38Z" stroke="" stroke-width="2"/>
<rect x="7" y="40" width="4" height="24" stroke="" stroke-width="2"/>
<path d="M21 46H25V64H21V46Z" stroke="" stroke-width="2"/>
<path d="M55 46H59V64H55V46Z" stroke="" stroke-width="2"/>
<rect x="69" y="40" width="4" height="24" stroke="" stroke-width="2"/>
<path d="M38 46H42V54L50 57V59H30V57L38 54V46Z" stroke="" stroke-width="2"/>
<circle cx="31" cy="62" r="2" stroke="" stroke-width="2"/>
<circle cx="49" cy="62" r="2" stroke="" stroke-width="2"/>
</svg>
