<svg width="80" height="80" viewBox="0 0 80 80" fill="none" xmlns="http://www.w3.org/2000/svg">
<path d="M26 17C26 14.7909 27.7909 13 30 13H38C41.3137 13 44 15.6863 44 19V20C44 23.3137 41.3137 26 38 26H30C27.7909 26 26 24.2091 26 22V17Z" stroke="" stroke-width="2"/>
<path d="M26 37C26 35.3431 27.3431 34 29 34H52.5C54.9853 34 57 36.0147 57 38.5C57 40.9853 54.9853 43 52.5 43H29C27.3431 43 26 41.6569 26 40V37Z" stroke="" stroke-width="2"/>
<rect x="31" y="26" width="4" height="8" stroke="" stroke-width="2"/>
<path d="M38.5 43.5V54.5C34.5 55.5 25.9 58 23.5 60C21.1 62 22.5 63.1667 23.5 63.5C27.1667 61.8333 37.8 58.5 41 58.5" stroke="" stroke-width="2"/>
<path d="M42.5 43.5V54.5C46.5 55.5 55.1 58 57.5 60C59.9 62 58.5 63.1667 57.5 63.5C53.8333 61.8333 44.2 58.5 41 58.5" stroke="" stroke-width="2"/>
<circle cx="23.5" cy="65.5" r="2.5" fill=""/>
<circle cx="56.5" cy="65.5" r="2.5" fill=""/>
<path d="M38.359 44.9333L25.5 49" stroke="" stroke-width="2"/>
</svg>
