<svg width="80" height="80" viewBox="0 0 80 80" fill="none" xmlns="http://www.w3.org/2000/svg">
<path d="M44 31V26M44 26H34V13H58V26H48M44 26H48M48 26V31M37 31H55" stroke="" stroke-width="2"/>
<path d="M70 38V33H10V38M27 38H67" stroke="" stroke-width="2"/>
<path d="M10 38V67H28V38" stroke="" stroke-width="2"/>
<path d="M66 38V67H70V38" stroke="" stroke-width="2"/>
<rect x="13" y="37" width="12" height="7" stroke="" stroke-width="2"/>
<rect x="13" y="47" width="12" height="7" stroke="" stroke-width="2"/>
<rect x="13" y="57" width="12" height="7" stroke="" stroke-width="2"/>
<rect x="12" y="22" width="4" height="11" stroke="" stroke-width="2"/>
<rect x="16" y="22" width="4" height="11" stroke="" stroke-width="2"/>
<rect x="20" y="22" width="4" height="11" stroke="" stroke-width="2"/>
</svg>
