<svg width="80" height="80" viewBox="0 0 80 80" fill="none" xmlns="http://www.w3.org/2000/svg">
<path d="M69.6841 29.2127C69.6841 27.5558 68.3409 26.2127 66.6841 26.2127H36.0525C34.3956 26.2127 33.0525 27.5558 33.0525 29.2127V46.5623H69.6841V29.2127Z" stroke="" stroke-width="2"/>
<path d="M69.6841 44.4808C69.6841 42.824 68.3409 41.4808 66.6841 41.4808H36.0525C34.3956 41.4808 33.0525 42.824 33.0525 44.4808V52.542H69.6841V44.4808Z" stroke="" stroke-width="2"/>
<path d="M11.5791 29.8997C11.5791 27.8634 13.2757 26.2127 15.3685 26.2127H29.2633C31.3561 26.2127 33.0527 27.8634 33.0527 29.8997V46.5623H21.0527" stroke="" stroke-width="2"/>
<path d="M21.6843 52.542H33.0527V45.1679C33.0527 43.1316 31.5258 41.4808 29.6422 41.4808H21.6843" stroke="" stroke-width="2"/>
<path d="M76 40.7937C76 39.1369 74.6569 37.7937 73 37.7937H72.6842C71.0274 37.7937 69.6842 39.1369 69.6842 40.7937V54.9999H76V40.7937Z" stroke="" stroke-width="2"/>
<path d="M3.99987 41.4808V29.687C3.99987 27.6507 5.69648 25.9999 7.78935 25.9999C9.88221 25.9999 11.5788 27.6507 11.5788 29.687V37.7938M3.99987 37.7938H17.8946C19.9875 37.7938 21.6841 39.4445 21.6841 41.4808V55H3.99987V37.7938Z" stroke="" stroke-width="2"/>
</svg>
