<svg width="80" height="80" viewBox="0 0 80 80" fill="none" xmlns="http://www.w3.org/2000/svg">
<path d="M15 36V48C15 49.6569 16.3431 51 18 51H62C63.6569 51 65 49.6569 65 48V35M23 41V42C23 42.5523 23.4477 43 24 43H40.5745H56C56.5523 43 57 42.5523 57 42V35.2842" stroke="" stroke-width="2"/>
<path d="M25 31C25 34.3137 22.3137 37 19 37C15.6863 37 13 34.3137 13 31C13 27.6863 15.6863 27.5 19 27.5C22.3137 27.5 25 27.6863 25 31Z" stroke="" stroke-width="2"/>
<path d="M67 31C67 34.3137 64.3137 37 61 37C57.6863 37 55 34.3137 55 31C55 27.6863 57.6863 27.5 61 27.5C64.3137 27.5 67 27.6863 67 31Z" stroke="" stroke-width="2"/>
<path d="M56 29V22C56 19.7909 54.2091 18 52 18H28C25.7909 18 24 19.7909 24 22V29" stroke="" stroke-width="2"/>
<path d="M57 42V39C57 36.2386 54.7614 34 52 34H28C25.2386 34 23 36.2386 23 39V42" stroke="" stroke-width="2"/>
<path d="M18.3191 50.9053L16.9946 58.6634C16.7861 59.8848 17.727 61 18.9661 61H19.5956C20.5291 61 21.3385 60.3542 21.5457 59.4439L23.4893 50.9053" stroke="" stroke-width="2"/>
<path d="M61.8298 50.9053L63.1543 58.6635C63.3628 59.8849 62.4219 61 61.1828 61H60.5534C59.6198 61 58.8105 60.3542 58.6033 59.4439L56.6596 50.9053" stroke="" stroke-width="2"/>
</svg>
