<svg width="57" height="32" viewBox="0 0 57 32" fill="none" xmlns="http://www.w3.org/2000/svg">
<path d="M48.7199 26.0209H48.7158H48.7117C48.465 26.024 48.2293 26.1233 48.0548 26.2975C47.8804 26.4717 47.7809 26.7069 47.7777 26.9531V26.9571V26.9613V29.9342V29.9382V29.9422C47.7809 30.1884 47.8804 30.4238 48.0548 30.5978C48.2293 30.772 48.465 30.8713 48.7117 30.8744L48.7158 30.8746H48.7199H55.0242H55.0283L55.0324 30.8744C55.2791 30.8713 55.5148 30.772 55.6892 30.5978C55.8637 30.4238 55.9631 30.1884 55.9664 29.9422V29.9382V29.9342V26.9613V26.9571V26.9531C55.9631 26.7069 55.8637 26.4717 55.6892 26.2975C55.5148 26.1233 55.2791 26.024 55.0324 26.0209H55.0283H55.0242H48.7199ZM55.0236 30.9999H48.7205C48.7204 30.9999 48.7203 30.9999 48.7202 30.9999C48.437 30.9994 48.1655 30.8871 47.9654 30.6872C47.7652 30.4874 47.6525 30.2164 47.6521 29.9338V26.9617C47.6525 26.679 47.7652 26.4081 47.9654 26.2082C48.1657 26.0084 48.4371 25.8959 48.7203 25.8955H55.0238C55.307 25.8959 55.5784 26.0084 55.7787 26.2082C55.9791 26.4081 56.0917 26.6792 56.092 26.9619V29.9334C56.0917 30.2162 55.9791 30.4872 55.7787 30.6872C55.5784 30.8871 55.3071 30.9994 55.0239 30.9999C55.0238 30.9999 55.0237 30.9999 55.0236 30.9999Z" stroke=""/>
<path d="M9.71955 30.6872C9.51931 30.4874 9.40663 30.2164 9.40625 29.9338V26.9617C9.40663 26.679 9.51931 26.4081 9.71955 26.2082C9.9198 26.0084 10.1913 25.8959 10.4744 25.8955H31.7437C32.0269 25.8959 32.2984 26.0084 32.4986 26.2082C32.6989 26.4081 32.8115 26.6792 32.8119 26.9619V29.9334C32.8115 30.2162 32.6989 30.4872 32.4986 30.6872C32.2984 30.8871 32.0269 30.9994 31.7437 30.9999C31.7436 30.9999 31.7435 30.9999 31.7434 30.9999H10.4748C10.4747 30.9999 10.4746 30.9999 10.4744 30.9999C10.1913 30.9994 9.9198 30.8871 9.71955 30.6872ZM10.474 26.0209H10.47H10.466C10.2193 26.024 9.98349 26.1233 9.80912 26.2975C9.63463 26.4717 9.53514 26.7069 9.532 26.9531L9.53187 26.9571V26.9613V29.9342V29.9382L9.532 29.9422C9.53514 30.1884 9.63463 30.4238 9.80912 30.5978C9.98349 30.772 10.2193 30.8713 10.466 30.8744L10.47 30.8746H10.474H31.7441H31.7481L31.7523 30.8744C31.9989 30.8713 32.2347 30.772 32.4092 30.5978C32.5837 30.4238 32.683 30.1884 32.6862 29.9422L32.6863 29.9382V29.9342V26.9613V26.9571L32.6862 26.9531C32.683 26.7069 32.5837 26.4717 32.4092 26.2975C32.2347 26.1233 31.9989 26.024 31.7523 26.0209H31.7481H31.7441H10.474Z" stroke=""/>
<path d="M9.71955 17.4096C9.51931 17.2098 9.40663 16.9388 9.40625 16.6562V2.06615C9.40663 1.78353 9.51931 1.51258 9.71955 1.31271C9.9198 1.11285 10.1913 1.00038 10.4744 1H31.7437C32.0269 1.00038 32.2984 1.11285 32.4986 1.31271C32.6989 1.51258 32.8115 1.78366 32.8119 2.0664V16.6559C32.8115 16.9387 32.6989 17.2098 32.4986 17.4096C32.2982 17.6096 32.0266 17.7221 31.7434 17.7223H10.4748C10.1915 17.7221 9.91992 17.6096 9.71955 17.4096ZM10.474 1.12539H10.47H10.466C10.2193 1.12865 9.98349 1.22782 9.80912 1.40198C9.63463 1.57614 9.53514 1.81137 9.532 2.05762L9.53187 2.06176V2.06577V16.6566V16.6606L9.532 16.6647C9.53514 16.911 9.63463 17.1462 9.80912 17.3204C9.98349 17.4945 10.2193 17.5937 10.466 17.597H10.47H10.474H31.7441H31.7481H31.7523C31.9989 17.5937 32.2347 17.4945 32.4092 17.3204C32.5837 17.1462 32.683 16.911 32.6862 16.6647L32.6863 16.6606V16.6566V2.06577V2.06176L32.6862 2.05762C32.683 1.81137 32.5837 1.57614 32.4092 1.40198C32.2347 1.22782 31.9989 1.12865 31.7523 1.12539H31.7481H31.7441H10.474Z" stroke=""/>
<path d="M10.474 17.7223H10.47L10.466 17.7224C10.2193 17.7256 9.98349 17.8247 9.80912 17.9989C9.63463 18.1731 9.53514 18.4083 9.532 18.6545L9.53187 18.6587V18.6627V24.9551V24.9592L9.532 24.9632C9.53514 25.2094 9.63463 25.4448 9.80912 25.6189C9.98349 25.793 10.2193 25.8923 10.466 25.8954L10.47 25.8955H10.474H55.0242H55.0283L55.0323 25.8954C55.2791 25.8923 55.5147 25.793 55.6892 25.6189C55.8637 25.4448 55.9631 25.2094 55.9664 24.9632V24.9592V24.9551V18.6627V18.6587V18.6545C55.9631 18.4083 55.8637 18.1731 55.6892 17.9989C55.5147 17.8247 55.2791 17.7256 55.0323 17.7224L55.0283 17.7223H55.0242H10.474ZM55.0235 26.0209H10.4748C10.1915 26.0205 9.91992 25.9081 9.71955 25.7082C9.51931 25.5083 9.40663 25.2374 9.40625 24.9548V18.6631C9.40663 18.3805 9.51931 18.1095 9.71955 17.9096C9.9198 17.7098 10.1913 17.5973 10.4744 17.5969H55.0238C55.307 17.5973 55.5784 17.7098 55.7787 17.9096C55.979 18.1096 56.0917 18.3807 56.092 18.6635V24.9544C56.0917 25.2371 55.979 25.5082 55.7787 25.7082C55.5784 25.9081 55.3068 26.0205 55.0235 26.0209Z" stroke=""/>
<path d="M2.15984 1.12539H2.1557H2.15168C1.90495 1.12865 1.66928 1.22782 1.49479 1.40198C1.3203 1.57614 1.22093 1.81137 1.21766 2.05762V2.06176V2.06577V29.9342V29.9382V29.9423C1.22093 30.1885 1.3203 30.4239 1.49479 30.5979C1.66928 30.7721 1.90495 30.8714 2.15168 30.8745L2.1557 30.8746H2.15984H8.46413H8.46828L8.4723 30.8745C8.71902 30.8714 8.95469 30.7721 9.12918 30.5979C9.30368 30.4239 9.40317 30.1885 9.40631 29.9423V29.9382V29.9342V2.06577V2.06176V2.05762C9.40317 1.81137 9.30368 1.57614 9.12918 1.40198C8.95469 1.22782 8.71902 1.12865 8.4723 1.12539H8.46828H8.46413H2.15984ZM8.4635 31H2.16047C1.87719 30.9996 1.60559 30.8871 1.40535 30.6873C1.2051 30.4874 1.09242 30.2165 1.09204 29.9339V2.06615C1.09242 1.78353 1.2051 1.51258 1.40535 1.31271C1.60559 1.11285 1.87706 1.00038 2.16022 1H8.46376C8.74691 1.00038 9.01839 1.11285 9.21863 1.31271C9.419 1.51258 9.53168 1.78366 9.53193 2.0664V29.9335C9.53168 30.2162 9.419 30.4873 9.21863 30.6873C9.01839 30.8871 8.74678 30.9996 8.4635 31Z" stroke=""/>
</svg>
