<svg width="80" height="80" viewBox="0 0 80 80" fill="none" xmlns="http://www.w3.org/2000/svg">
<path d="M21 39C21 38.4477 21.4477 38 22 38H60C60.5523 38 61 38.4477 61 39V45C61 45.5523 60.5523 46 60 46H22C21.4477 46 21 45.5523 21 45V39Z" stroke="" stroke-width="2"/>
<path d="M19 27.9816C19 24.7373 21.0413 22.0231 24.2659 21.6662C27.444 21.3145 32.3608 21 39.7833 21C47.384 21 52.6493 21.3298 56.139 21.6916C59.6497 22.0557 62 25.0348 62 28.5644V35C62 36.6569 60.6569 38 59 38H22C20.3431 38 19 36.6569 19 35V27.9816Z" stroke="" stroke-width="2"/>
<path d="M23 46V58C23 58.5523 23.4477 59 24 59H27.1421C27.6357 59 28.0554 58.6399 28.1305 58.1521L30 46" stroke="" stroke-width="2"/>
<path d="M59 46V58C59 58.5523 58.5523 59 58 59H54.8579C54.3643 59 53.9446 58.6399 53.8695 58.1521L52 46" stroke="" stroke-width="2"/>
</svg>
